# xmcd CD database file
# Generated: Tue Nov 25 11:18:46 2003 by KSCD
# 
# Track frame offsets:
#       150
#       18557
#       39433
#       59400
#       75553
#       94559
#       118340
#       141356
#       164831
#
# Disc length: 2491 seconds
#
# Revision: 9
# Processed by: cddbd v1.4PL0 Copyright (c) Steve Scherf et al.
# Submitted via: Kscd 1.3.3
#
DISCID=7a09b909
DTITLE=Talking Heads - Speaking In Tongues
DYEAR=1983
DGENRE=Pop
TTITLE0=Burning Down the House
TTITLE1=Making Flippy Floppy
TTITLE2=Girlfriend is Better
TTITLE3=Slippery People
TTITLE4=I Get Wild/Wild Gravity
TTITLE5=Swamp
TTITLE6=Moon Rocks
TTITLE7=Pull Up the Roots
TTITLE8=This Must Be the Place (Naive Melody)
EXTD=1983 Sire Records\nAll music by D. Byrne, C. Frantz, J. Harrison, and 
EXTD=\nT. Weymouth - lyrics by D. Byrne YEAR: 1983 ID3G: 13
EXTT0=
EXTT1=
EXTT2=
EXTT3=
EXTT4=
EXTT5=
EXTT6=
EXTT7=
EXTT8=
PLAYORDER=
